<svg width="23" height="22" viewBox="0 0 23 22" fill="none" xmlns="http://www.w3.org/2000/svg">
<path d="M22.5 5V1C22.5 0.734784 22.3946 0.480429 22.2071 0.292892C22.0196 0.105356 21.7652 0 21.5 0H1.5C1.23478 0 0.980429 0.105356 0.792892 0.292892C0.605356 0.480429 0.5 0.734784 0.5 1V5H22.5Z" fill="#2EC5CE"/>
<path d="M0.5 7V21C0.5 21.2652 0.605356 21.5196 0.792892 21.7071C0.980429 21.8946 1.23478 22 1.5 22H6.5V7H0.5Z" fill="#D6B1FF"/>
<path d="M8.5 22H21.5C21.7652 22 22.0196 21.8946 22.2071 21.7071C22.3946 21.5196 22.5 21.2652 22.5 21V7H8.5V22Z" fill="#8C30F5"/>
</svg>
