<svg width="21" height="24" viewBox="0 0 21 24" fill="none" xmlns="http://www.w3.org/2000/svg">
<path d="M19.5 24H10.5C10.2348 24 9.98043 23.8946 9.79289 23.7071C9.60536 23.5196 9.5 23.2652 9.5 23V21C9.5 20.7348 9.60536 20.4804 9.79289 20.2929C9.98043 20.1054 10.2348 20 10.5 20H19.5C19.7652 20 20.0196 20.1054 20.2071 20.2929C20.3946 20.4804 20.5 20.7348 20.5 21V23C20.5 23.2652 20.3946 23.5196 20.2071 23.7071C20.0196 23.8946 19.7652 24 19.5 24Z" fill="#D6B1FF"/>
<path d="M19.5 0H1.5C1.23478 0 0.980429 0.105356 0.792892 0.292892C0.605356 0.480429 0.5 0.734784 0.5 1V3C0.5 3.26522 0.605356 3.51957 0.792892 3.70711C0.980429 3.89464 1.23478 4 1.5 4H19.5C19.7652 4 20.0196 3.89464 20.2071 3.70711C20.3946 3.51957 20.5 3.26522 20.5 3V1C20.5 0.734784 20.3946 0.480429 20.2071 0.292892C20.0196 0.105356 19.7652 0 19.5 0Z" fill="#2EC5CE"/>
<path d="M19.5 6H1.5C1.23478 6 0.980429 6.10536 0.792892 6.29289C0.605356 6.48043 0.5 6.73478 0.5 7V17C0.5 17.2652 0.605356 17.5196 0.792892 17.7071C0.980429 17.8946 1.23478 18 1.5 18H19.5C19.7652 18 20.0196 17.8946 20.2071 17.7071C20.3946 17.5196 20.5 17.2652 20.5 17V7C20.5 6.73478 20.3946 6.48043 20.2071 6.29289C20.0196 6.10536 19.7652 6 19.5 6Z" fill="#8C30F5"/>
</svg>
